<svg width="18" height="18" viewBox="0 0 18 18" fill="none" xmlns="http://www.w3.org/2000/svg">
<path d="M11.3333 10.6667C12.4384 10.6667 13.4982 11.1057 14.2796 11.8871C15.061 12.6685 15.5 13.7283 15.5 14.8334V15.6667C15.5 16.1087 15.3244 16.5326 15.0118 16.8452C14.6993 17.1578 14.2754 17.3334 13.8333 17.3334H2.16667C1.72464 17.3334 1.30072 17.1578 0.988155 16.8452C0.675595 16.5326 0.5 16.1087 0.5 15.6667V14.8334C0.5 13.7283 0.938987 12.6685 1.72039 11.8871C2.50179 11.1057 3.5616 10.6667 4.66667 10.6667H11.3333ZM14.6667 5.66669C14.8877 5.66669 15.0996 5.75448 15.2559 5.91076C15.4122 6.06705 15.5 6.27901 15.5 6.50002V7.33335H16.3333C16.5543 7.33335 16.7663 7.42115 16.9226 7.57743C17.0789 7.73371 17.1667 7.94567 17.1667 8.16669C17.1667 8.3877 17.0789 8.59966 16.9226 8.75594C16.7663 8.91222 16.5543 9.00002 16.3333 9.00002H15.5V9.83335C15.5 10.0544 15.4122 10.2663 15.2559 10.4226C15.0996 10.5789 14.8877 10.6667 14.6667 10.6667C14.4457 10.6667 14.2337 10.5789 14.0774 10.4226C13.9211 10.2663 13.8333 10.0544 13.8333 9.83335V9.00002H13C12.779 9.00002 12.567 8.91222 12.4107 8.75594C12.2545 8.59966 12.1667 8.3877 12.1667 8.16669C12.1667 7.94567 12.2545 7.73371 12.4107 7.57743C12.567 7.42115 12.779 7.33335 13 7.33335H13.8333V6.50002C13.8333 6.27901 13.9211 6.06705 14.0774 5.91076C14.2337 5.75448 14.4457 5.66669 14.6667 5.66669ZM8 0.666687C9.10507 0.666687 10.1649 1.10567 10.9463 1.88708C11.7277 2.66848 12.1667 3.72828 12.1667 4.83335C12.1667 5.93842 11.7277 6.99823 10.9463 7.77963C10.1649 8.56103 9.10507 9.00002 8 9.00002C6.89493 9.00002 5.83512 8.56103 5.05372 7.77963C4.27232 6.99823 3.83333 5.93842 3.83333 4.83335C3.83333 3.72828 4.27232 2.66848 5.05372 1.88708C5.83512 1.10567 6.89493 0.666687 8 0.666687Z" fill="black"/>
</svg>
