<svg width="40" height="40" viewBox="0 0 40 40" fill="none" xmlns="http://www.w3.org/2000/svg">
<path d="M6.528 17.158C6.40084 17.2876 6.24912 17.3906 6.08171 17.4608C5.9143 17.5311 5.73456 17.5673 5.553 17.5673C5.37144 17.5673 5.1917 17.5311 5.02429 17.4608C4.85688 17.3906 4.70516 17.2876 4.578 17.158C4.31917 16.8947 4.17414 16.5403 4.17414 16.171C4.17414 15.8018 4.31917 15.4474 4.578 15.184L16.64 3.00004C19.36 0.888044 22.096 -0.125956 24.82 0.0120439C28.252 0.188044 30.924 1.49604 33.192 3.64204C35.504 5.83004 37 8.95204 37 12.736C37 15.64 36.156 18.196 34.374 20.464L17.368 37.984C15.648 39.394 13.736 40.076 11.688 39.994C9.088 39.886 7.154 39.046 5.716 37.624C4.032 35.962 3 33.92 3 31.174C3 28.99 3.754 26.974 5.31 25.082L20.278 9.80004C21.478 8.52004 22.652 7.76004 23.852 7.57604C24.6529 7.44989 25.4726 7.52153 26.2395 7.78472C27.0064 8.04791 27.6973 8.49466 28.252 9.08604C29.316 10.212 29.772 11.616 29.612 13.214C29.502 14.304 29.056 15.308 28.236 16.27L14.476 30.366C14.3497 30.4961 14.1987 30.5997 14.0319 30.6709C13.8651 30.742 13.6858 30.7792 13.5045 30.7803C13.3232 30.7814 13.1435 30.7464 12.9758 30.6774C12.8082 30.6083 12.6559 30.5066 12.528 30.378C12.2676 30.1163 12.1204 29.7627 12.1181 29.3935C12.1159 29.0243 12.2588 28.6689 12.516 28.404L26.21 14.38C26.61 13.91 26.82 13.436 26.87 12.932C26.95 12.132 26.758 11.542 26.26 11.016C26.0085 10.7467 25.6943 10.5436 25.3454 10.425C24.9964 10.3063 24.6236 10.2758 24.26 10.336C23.774 10.41 23.094 10.852 22.256 11.744L7.35 26.958C6.276 28.268 5.756 29.658 5.756 31.176C5.756 33.084 6.446 34.45 7.64 35.628C8.59 36.568 9.88 37.128 11.8 37.208C13.16 37.262 14.42 36.812 15.516 35.924L32.31 18.624C33.6 16.97 34.244 15.024 34.244 12.738C34.244 9.77404 33.09 7.37004 31.308 5.68204C29.488 3.95804 27.408 2.94204 24.682 2.80204C22.666 2.69804 20.552 3.48204 18.448 5.09404L6.528 17.158Z" fill="#B8B8B8"/>
</svg>
