<svg width="18" height="18" viewBox="0 0 18 18" fill="none" xmlns="http://www.w3.org/2000/svg">
<path d="M11.3333 10.6667C12.4384 10.6667 13.4982 11.1057 14.2796 11.8871C15.061 12.6685 15.5 13.7283 15.5 14.8334V15.6667C15.5 16.1087 15.3244 16.5326 15.0118 16.8452C14.6993 17.1578 14.2754 17.3334 13.8333 17.3334H2.16667C1.72464 17.3334 1.30072 17.1578 0.988155 16.8452C0.675595 16.5326 0.5 16.1087 0.5 15.6667V14.8334C0.5 13.7283 0.938987 12.6685 1.72039 11.8871C2.50179 11.1057 3.5616 10.6667 4.66667 10.6667H11.3333ZM8 0.666687C9.10507 0.666687 10.1649 1.10567 10.9463 1.88708C11.7277 2.66848 12.1667 3.72828 12.1667 4.83335C12.1667 5.93842 11.7277 6.99823 10.9463 7.77963C10.1649 8.56103 9.10507 9.00002 8 9.00002C6.89493 9.00002 5.83512 8.56103 5.05372 7.77963C4.27232 6.99823 3.83333 5.93842 3.83333 4.83335C3.83333 3.72828 4.27232 2.66848 5.05372 1.88708C5.83512 1.10567 6.89493 0.666687 8 0.666687ZM16.3333 7.33335C16.5457 7.33359 16.75 7.41492 16.9045 7.56073C17.0589 7.70653 17.1519 7.90581 17.1643 8.11785C17.1768 8.32988 17.1078 8.53867 16.9714 8.70155C16.8351 8.86442 16.6417 8.9691 16.4308 8.99419L16.3333 9.00002H13C12.7876 8.99978 12.5833 8.91845 12.4289 8.77265C12.2744 8.62684 12.1815 8.42756 12.169 8.21552C12.1566 8.00349 12.2256 7.7947 12.3619 7.63183C12.4982 7.46895 12.6916 7.36427 12.9025 7.33919L13 7.33335H16.3333Z" fill="#FF0000"/>
</svg>
