<svg width="20" height="20" viewBox="0 0 20 20" fill="none" xmlns="http://www.w3.org/2000/svg">
<path d="M17.0834 5H2.91675M15.6942 7.08333L15.3109 12.8333C15.1634 15.045 15.0901 16.1508 14.3692 16.825C13.6484 17.5 12.5392 17.5 10.3226 17.5H9.67758C7.46091 17.5 6.35175 17.5 5.63091 16.825C4.91008 16.1508 4.83591 15.045 4.68925 12.8333L4.30591 7.08333M7.91675 9.16667L8.33341 13.3333M12.0834 9.16667L11.6667 13.3333" stroke="#FF0000" stroke-width="1.25" stroke-linecap="round"/>
<path d="M5.41675 5H5.50841C5.84379 4.99143 6.16877 4.88185 6.44085 4.68559C6.71294 4.48934 6.91946 4.21553 7.03341 3.9L7.06175 3.81417L7.14258 3.57167C7.21175 3.36417 7.24675 3.26083 7.29258 3.1725C7.38275 2.99949 7.51217 2.84999 7.67048 2.73597C7.82878 2.62194 8.01158 2.54655 8.20425 2.51583C8.30175 2.5 8.41091 2.5 8.62925 2.5H11.3709C11.5892 2.5 11.6984 2.5 11.7959 2.51583C11.9886 2.54655 12.1714 2.62194 12.3297 2.73597C12.488 2.84999 12.6174 2.99949 12.7076 3.1725C12.7534 3.26083 12.7884 3.36417 12.8576 3.57167L12.9384 3.81417C13.044 4.16523 13.2624 4.47167 13.5598 4.68605C13.8572 4.90043 14.217 5.01077 14.5834 5" stroke="#FF0000" stroke-width="1.25"/>
</svg>
